<svg width="84" height="16" fill="none" xmlns="http://www.w3.org/2000/svg"><path d="M7.144.533l-1.953 3.96-4.369.637a.957.957 0 00-.529 1.633l3.161 3.08-.75 4.35a.956.956 0 001.387 1.009l3.912-2.054 3.91 2.055a.958.958 0 001.39-1.01l-.752-4.35 3.161-3.08a.957.957 0 00-.529-1.633l-4.369-.637L8.861.533a.958.958 0 00-1.717 0zM24.143.533l-1.953 3.96-4.369.637a.956.956 0 00-.529 1.633l3.161 3.08-.751 4.35a.955.955 0 001.388 1.009l3.912-2.054 3.909 2.055a.957.957 0 001.391-1.01l-.752-4.35 3.161-3.08a.957.957 0 00-.529-1.633l-4.369-.637L25.86.533a.958.958 0 00-1.717 0zM41.142.533l-1.954 3.96-4.369.637a.957.957 0 00-.529 1.633l3.162 3.08-.752 4.35a.955.955 0 001.389 1.009L42 13.148l3.909 2.055a.957.957 0 001.39-1.01l-.752-4.35 3.161-3.08a.957.957 0 00-.529-1.633l-4.368-.637-1.953-3.96a.958.958 0 00-1.718 0zM58.14.533l-1.953 3.96-4.369.637a.957.957 0 00-.529 1.633l3.161 3.08-.751 4.35a.956.956 0 001.388 1.009l3.912-2.054 3.909 2.055a.958.958 0 001.391-1.01l-.752-4.35 3.161-3.08a.957.957 0 00-.529-1.633l-4.369-.637-1.953-3.96a.958.958 0 00-1.717 0zM75.139.533l-1.953 3.96-4.37.637a.956.956 0 00-.528 1.633l3.16 3.08-.75 4.35a.955.955 0 001.388 1.009l3.912-2.054 3.909 2.055a.957.957 0 001.39-1.01l-.751-4.35 3.16-3.08a.957.957 0 00-.528-1.633l-4.37-.637-1.952-3.96a.958.958 0 00-1.717 0z" fill="#FDB82C"/></svg>